<svg width="156" height="64" viewBox="0 0 156 64" fill="none" xmlns="http://www.w3.org/2000/svg">
<path d="M60.98 23H57.67V11.28H64.27V13.83L60.98 13.63V16.35H63.68V18.83L60.98 18.63V23ZM75.6221 23H72.3921V16.53L71.7921 16.16V15.03L73.9421 14.5H74.7521L75.0421 16.88C75.3154 15.2467 76.1921 14.43 77.6721 14.43C77.8388 14.43 78.0121 14.46 78.1921 14.52L77.8521 18.08C77.7121 17.9533 77.4054 17.89 76.9321 17.89C76.2521 17.89 75.8154 18.07 75.6221 18.43V23ZM86.1839 23V16.53L85.5839 16.16V15.09L87.7339 14.5H89.4039V23H86.1839ZM87.6339 13.58L85.9939 11.93V11.58L87.6339 9.94H88.0139L89.7239 11.58V11.93L88.0139 13.58H87.6339ZM102.474 17.83C102.474 16.9833 102.43 16.3833 102.344 16.03C102.257 15.6767 102.097 15.5 101.864 15.5C101.664 15.5 101.5 15.5367 101.374 15.61C101.247 15.6767 101.154 15.7867 101.094 15.94C101.034 16.0867 100.994 16.24 100.974 16.4C100.96 16.5533 100.954 16.75 100.954 16.99V17.83H102.474ZM101.674 23.21C100.927 23.21 100.277 23.0967 99.7235 22.87C99.1768 22.6433 98.7435 22.3267 98.4235 21.92C98.1102 21.5133 97.8802 21.0567 97.7335 20.55C97.5868 20.0367 97.5135 19.4667 97.5135 18.84C97.5135 17.3467 97.8935 16.2167 98.6535 15.45C99.4135 14.6833 100.477 14.3 101.844 14.3C103.157 14.3 104.097 14.61 104.664 15.23C105.23 15.8433 105.514 16.8333 105.514 18.2V19.31H100.944V19.5C100.944 19.8933 100.984 20.2167 101.064 20.47C101.15 20.7233 101.274 20.91 101.434 21.03C101.594 21.15 101.757 21.23 101.924 21.27C102.09 21.31 102.294 21.33 102.534 21.33C102.767 21.33 103.017 21.3 103.284 21.24C103.557 21.18 103.83 21.0867 104.104 20.96C104.384 20.8333 104.617 20.6833 104.804 20.51L105.394 21.52C105.147 21.92 104.784 22.2567 104.304 22.53C103.83 22.7967 103.374 22.9767 102.934 23.07C102.494 23.1633 102.074 23.21 101.674 23.21ZM117.027 23H113.797V16.53L113.197 16.16V15.09L115.347 14.5H117.047V15.79L117.167 15.64C117.247 15.5333 117.363 15.4067 117.517 15.26C117.677 15.1133 117.853 14.97 118.047 14.83C118.24 14.6833 118.47 14.56 118.737 14.46C119.01 14.3533 119.277 14.3 119.537 14.3C120.45 14.3 121.093 14.55 121.467 15.05C121.847 15.55 122.037 16.3867 122.037 17.56C122.037 17.6 122.037 17.66 122.037 17.74C122.03 17.82 122.027 17.8833 122.027 17.93V23H118.727V17.64C118.747 17.0133 118.48 16.7 117.927 16.7C117.887 16.7 117.847 16.7033 117.807 16.71C117.773 16.7167 117.74 16.7233 117.707 16.73C117.68 16.7367 117.647 16.75 117.607 16.77C117.573 16.7833 117.543 16.7967 117.517 16.81C117.49 16.8167 117.46 16.8333 117.427 16.86C117.393 16.88 117.367 16.8967 117.347 16.91C117.327 16.9233 117.297 16.9467 117.257 16.98C117.223 17.0067 117.197 17.0267 117.177 17.04C117.163 17.0533 117.137 17.0767 117.097 17.11C117.063 17.1367 117.04 17.1567 117.027 17.17V23ZM136.079 23L135.689 21.71C135.636 21.8033 135.572 21.8967 135.499 21.99C135.432 22.0833 135.322 22.2033 135.169 22.35C135.016 22.49 134.852 22.6133 134.679 22.72C134.506 22.8267 134.289 22.92 134.029 23C133.769 23.08 133.496 23.12 133.209 23.12C132.109 23.12 131.302 22.7433 130.789 21.99C130.276 21.2367 130.019 20.19 130.019 18.85C130.019 18.01 130.139 17.2633 130.379 16.61C130.619 15.95 130.996 15.42 131.509 15.02C132.022 14.62 132.642 14.42 133.369 14.42C133.802 14.42 134.189 14.4667 134.529 14.56C134.869 14.6533 135.162 14.7667 135.409 14.9V11.87L134.309 11.5V10.4L137.849 9.9H138.629V23H136.079ZM134.669 21.16C134.789 21.16 134.912 21.14 135.039 21.1C135.166 21.0533 135.289 20.99 135.409 20.91V15.88C135.202 15.8333 135.012 15.81 134.839 15.81C133.952 15.8167 133.506 16.5 133.499 17.86V19.26C133.499 19.8867 133.609 20.36 133.829 20.68C134.049 21 134.329 21.16 134.669 21.16Z" fill="white"/>
<path d="M16.212 55.42C14.168 55.42 12.264 55.028 10.5 54.244C8.764 53.46 7.238 52.396 5.922 51.052C4.578 49.708 3.528 48.14 2.772 46.348C2.044 44.528 1.68 42.512 1.68 40.3C1.68 38.172 2.058 36.184 2.814 34.336C3.57 32.488 4.606 30.892 5.922 29.548C7.238 28.204 8.764 27.14 10.5 26.356C12.264 25.572 14.168 25.18 16.212 25.18C18.256 25.18 20.188 25.6 22.008 26.44C23.856 27.28 25.536 28.554 27.048 30.262L24.402 32.446C21.994 29.814 19.264 28.498 16.212 28.498C14.644 28.498 13.202 28.806 11.886 29.422C10.57 30.038 9.394 30.878 8.358 31.942C7.35 33.006 6.552 34.252 5.964 35.68C5.404 37.08 5.124 38.62 5.124 40.3C5.124 42.008 5.404 43.576 5.964 45.004C6.552 46.404 7.35 47.622 8.358 48.658C9.394 49.722 10.57 50.562 11.886 51.178C13.202 51.794 14.644 52.102 16.212 52.102C19.264 52.102 21.994 50.786 24.402 48.154L27.048 50.338C25.536 52.046 23.856 53.32 22.008 54.16C20.188 55 18.256 55.42 16.212 55.42ZM40.1448 55.504C38.1288 55.504 36.3508 55.07 34.8108 54.202C33.2988 53.334 32.1088 52.116 31.2408 50.548C30.4008 48.952 29.9808 47.09 29.9808 44.962C29.9808 42.498 30.4288 40.44 31.3248 38.788C32.2208 37.136 33.4248 35.89 34.9368 35.05C36.4768 34.21 38.2128 33.79 40.1448 33.79C42.1328 33.79 43.8828 34.21 45.3948 35.05C46.9348 35.89 48.1388 37.136 49.0068 38.788C49.8748 40.44 50.3088 42.498 50.3088 44.962C50.3088 47.09 49.8748 48.952 49.0068 50.548C48.1388 52.116 46.9348 53.334 45.3948 54.202C43.8828 55.07 42.1328 55.504 40.1448 55.504ZM40.1448 52.312C41.6288 52.312 42.8888 51.99 43.9248 51.346C44.9608 50.674 45.7448 49.778 46.2768 48.658C46.8088 47.538 47.0748 46.306 47.0748 44.962C47.0748 42.666 46.4728 40.776 45.2688 39.292C44.0928 37.78 42.3848 37.024 40.1448 37.024C37.8768 37.024 36.1548 37.78 34.9788 39.292C33.8028 40.804 33.2148 42.694 33.2148 44.962C33.2148 46.334 33.4668 47.58 33.9708 48.7C34.5028 49.792 35.2868 50.674 36.3228 51.346C37.3588 51.99 38.6328 52.312 40.1448 52.312ZM72.5038 55H69.1858V42.526C69.1858 41.182 68.8918 40.104 68.3038 39.292C67.7438 38.48 67.0158 37.906 66.1198 37.57C65.2518 37.206 64.3418 37.024 63.3898 37.024C62.4658 37.024 61.5418 37.22 60.6178 37.612C59.7218 38.004 58.9658 38.606 58.3498 39.418C57.7338 40.23 57.4258 41.266 57.4258 42.526V55H54.1078V34H57.4258V36.268C58.0698 35.4 58.9518 34.77 60.0718 34.378C61.1918 33.958 62.3538 33.748 63.5578 33.748C65.1818 33.748 66.6658 34.084 68.0098 34.756C69.3818 35.428 70.4738 36.422 71.2858 37.738C72.0978 39.026 72.5038 40.622 72.5038 42.526V55ZM94.6933 55H91.3753V42.526C91.3753 41.182 91.0813 40.104 90.4933 39.292C89.9333 38.48 89.2053 37.906 88.3093 37.57C87.4413 37.206 86.5313 37.024 85.5793 37.024C84.6553 37.024 83.7313 37.22 82.8073 37.612C81.9113 38.004 81.1553 38.606 80.5393 39.418C79.9233 40.23 79.6153 41.266 79.6153 42.526V55H76.2973V34H79.6153V36.268C80.2593 35.4 81.1413 34.77 82.2613 34.378C83.3813 33.958 84.5433 33.748 85.7473 33.748C87.3713 33.748 88.8553 34.084 90.1993 34.756C91.5713 35.428 92.6633 36.422 93.4753 37.738C94.2873 39.026 94.6933 40.622 94.6933 42.526V55ZM117.891 45.508H101.553C101.609 47.328 102.099 48.77 103.023 49.834C103.947 50.898 105.123 51.598 106.551 51.934C107.979 52.27 109.505 52.242 111.129 51.85C112.753 51.458 114.293 50.716 115.749 49.624L117.513 52.228C116.141 53.292 114.713 54.076 113.229 54.58C111.745 55.084 110.261 55.35 108.777 55.378C105.277 55.462 102.603 54.496 100.755 52.48C98.9067 50.436 97.9827 47.594 97.9827 43.954C97.9827 40.846 98.8507 38.368 100.587 36.52C102.351 34.672 104.899 33.762 108.231 33.79C110.415 33.79 112.277 34.238 113.817 35.134C115.357 36.03 116.491 37.36 117.219 39.124C117.583 39.992 117.807 40.958 117.891 42.022C118.003 43.086 118.003 44.248 117.891 45.508ZM108.399 36.898C106.495 36.898 104.871 37.402 103.527 38.41C102.211 39.39 101.553 40.86 101.553 42.82H114.909C114.909 40.972 114.321 39.53 113.145 38.494C111.997 37.43 110.415 36.898 108.399 36.898ZM138.955 52.27C137.499 53.586 135.973 54.468 134.377 54.916C132.781 55.364 131.227 55.434 129.715 55.126C128.231 54.846 126.873 54.23 125.641 53.278C124.437 52.298 123.471 51.066 122.743 49.582C122.015 48.07 121.651 46.334 121.651 44.374C121.651 42.414 122.001 40.706 122.701 39.25C123.429 37.766 124.395 36.576 125.599 35.68C126.831 34.784 128.203 34.21 129.715 33.958C131.227 33.706 132.781 33.818 134.377 34.294C136.001 34.742 137.541 35.596 138.997 36.856L136.897 39.25C135.665 38.186 134.349 37.542 132.949 37.318C131.577 37.066 130.289 37.206 129.085 37.738C127.881 38.242 126.901 39.068 126.145 40.216C125.389 41.336 125.011 42.722 125.011 44.374C125.011 46.138 125.389 47.636 126.145 48.868C126.929 50.072 127.937 50.954 129.169 51.514C130.401 52.046 131.703 52.186 133.075 51.934C134.475 51.682 135.777 50.954 136.981 49.75L138.955 52.27ZM146.018 45.928V37.108H142.364V34H146.018V25.6H149.336V34H153.032V37.108H149.336V45.928C149.336 47.72 149.392 49.036 149.504 49.876C149.644 50.688 149.91 51.206 150.302 51.43C150.694 51.654 151.268 51.78 152.024 51.808H153.074V55.126H152.15C150.862 55.126 149.812 55.014 149 54.79C148.188 54.538 147.558 54.09 147.11 53.446C146.69 52.802 146.396 51.878 146.228 50.674C146.088 49.47 146.018 47.888 146.018 45.928Z" fill="white"/>
</svg>
