<svg width="50" height="45" viewBox="0 0 50 45" fill="none" xmlns="http://www.w3.org/2000/svg">

    <g id="chat">
        <path
                d="M5 4C4.73478 4 4.48043 4.10536 4.29289 4.29289C4.10536 4.48043 4 4.73478 4 5V18.5858L6.29289 16.2929C6.48043 16.1054 6.73478 16 7 16H19C19.2652 16 19.5196 15.8946 19.7071 15.7071C19.8946 15.5196 20 15.2652 20 15V5C20 4.73478 19.8946 4.48043 19.7071 4.29289C19.5196 4.10536 19.2652 4 19 4H5ZM2.87868 2.87868C3.44129 2.31607 4.20435 2 5 2H19C19.7957 2 20.5587 2.31607 21.1213 2.87868C21.6839 3.44129 22 4.20435 22 5V15C22 15.7957 21.6839 16.5587 21.1213 17.1213C20.5587 17.6839 19.7957 18 19 18H7.41421L3.70711 21.7071C3.42111 21.9931 2.99099 22.0787 2.61732 21.9239C2.24364 21.7691 2 21.4045 2 21V5C2 4.20435 2.31607 3.44129 2.87868 2.87868Z"
                fill="currentColor"/>
    </g>

    <g id="profile">
        <path d="M4.46447 15.4645C5.40215 14.5268 6.67392 14 8 14H16C17.3261 14 18.5979 14.5268 19.5355 15.4645C20.4732 16.4021 21 17.6739 21 19V21C21 21.5523 20.5523 22 20 22C19.4477 22 19 21.5523 19 21V19C19 18.2044 18.6839 17.4413 18.1213 16.8787C17.5587 16.3161 16.7956 16 16 16H8C7.20435 16 6.44129 16.3161 5.87868 16.8787C5.31607 17.4413 5 18.2044 5 19V21C5 21.5523 4.55228 22 4 22C3.44772 22 3 21.5523 3 21V19C3 17.6739 3.52678 16.4021 4.46447 15.4645Z"
              fill="currentColor"/>
        <path d="M12 4C10.3431 4 9 5.34315 9 7C9 8.65685 10.3431 10 12 10C13.6569 10 15 8.65685 15 7C15 5.34315 13.6569 4 12 4ZM7 7C7 4.23858 9.23858 2 12 2C14.7614 2 17 4.23858 17 7C17 9.76142 14.7614 12 12 12C9.23858 12 7 9.76142 7 7Z"
              fill="currentColor"/>
    </g>

    <g id="users">
        <path d="M1.46447 15.4645C2.40215 14.5268 3.67392 14 5 14H13C14.3261 14 15.5979 14.5268 16.5355 15.4645C17.4732 16.4021 18 17.6739 18 19V21C18 21.5523 17.5523 22 17 22C16.4477 22 16 21.5523 16 21V19C16 18.2044 15.6839 17.4413 15.1213 16.8787C14.5587 16.3161 13.7956 16 13 16H5C4.20435 16 3.44129 16.3161 2.87868 16.8787C2.31607 17.4413 2 18.2044 2 19V21C2 21.5523 1.55228 22 1 22C0.447715 22 0 21.5523 0 21V19C0 17.6739 0.526784 16.4021 1.46447 15.4645Z"
              fill="currentColor"/>
        <path d="M9 4C7.34315 4 6 5.34315 6 7C6 8.65685 7.34315 10 9 10C10.6569 10 12 8.65685 12 7C12 5.34315 10.6569 4 9 4ZM4 7C4 4.23858 6.23858 2 9 2C11.7614 2 14 4.23858 14 7C14 9.76142 11.7614 12 9 12C6.23858 12 4 9.76142 4 7Z"
              fill="currentColor"/>
        <path d="M19.0318 14.88C19.1698 14.3453 19.7153 14.0237 20.25 14.1618C21.3227 14.4387 22.273 15.0641 22.9517 15.9397C23.6304 16.8152 23.9992 17.8914 24 18.9993L24 21C24 21.5523 23.5523 22 23 22C22.4477 22 22 21.5523 22 21L22 19.0007C22 19.0006 22 19.0008 22 19.0007C21.9994 18.3361 21.7782 17.6902 21.371 17.165C20.9638 16.6396 20.3936 16.2644 19.75 16.0982C19.2153 15.9602 18.8937 15.4148 19.0318 14.88Z"
              fill="currentColor"/>
        <path d="M15.0313 2.88196C15.1682 2.34694 15.713 2.02426 16.248 2.16125C17.3236 2.43663 18.2768 3.06213 18.9576 3.93914C19.6383 4.81615 20.0078 5.89479 20.0078 7.005C20.0078 8.11521 19.6383 9.19385 18.9576 10.0709C18.2768 10.9479 17.3236 11.5734 16.248 11.8488C15.713 11.9857 15.1682 11.6631 15.0313 11.128C14.8943 10.593 15.2169 10.0482 15.752 9.91125C16.3973 9.74603 16.9692 9.37073 17.3777 8.84452C17.7861 8.31831 18.0078 7.67113 18.0078 7.005C18.0078 6.33887 17.7861 5.69169 17.3777 5.16548C16.9692 4.63928 16.3973 4.26398 15.752 4.09875C15.2169 3.96176 14.8943 3.41699 15.0313 2.88196Z"
              fill="currentColor"/>
    </g>

</svg>
